<?xml version="1.0" encoding="UTF-8" standalone="no"?>
<svg
   viewBox="0 0 212 50"
   version="1.1"
   id="svg87"
   sodipodi:docname="Ministero dell'Economia e delle Finanze - Ministero dell'Economia e delle Finanze-9.svg"
   xmlns:inkscape="http://www.inkscape.org/namespaces/inkscape"
   xmlns:sodipodi="http://sodipodi.sourceforge.net/DTD/sodipodi-0.dtd"
   xmlns:xlink="http://www.w3.org/1999/xlink"
   xmlns="http://www.w3.org/2000/svg"
   xmlns:svg="http://www.w3.org/2000/svg"
   xmlns:rdf="http://www.w3.org/1999/02/22-rdf-syntax-ns#"
   xmlns:cc="http://creativecommons.org/ns#"
   xmlns:dc="http://purl.org/dc/elements/1.1/">
  <sodipodi:namedview
     id="namedview89"
     pagecolor="#ffffff"
     bordercolor="#666666"
     borderopacity="1.0"
     inkscape:pageshadow="2"
     inkscape:pageopacity="0.0"
     inkscape:pagecheckerboard="0"
     showgrid="false"
     width="316px"
     inkscape:zoom="4"
     inkscape:cx="106.75"
     inkscape:cy="36.625"
     inkscape:window-width="1920"
     inkscape:window-height="991"
     inkscape:window-x="-9"
     inkscape:window-y="-9"
     inkscape:window-maximized="1"
     inkscape:current-layer="logo-desktop-esteso" />
  <title
     id="title50">logo-desktop-esteso</title>
  <defs
     id="defs53">
    <polygon
       id="path-1"
       points="27.381982,0 27.381982,25.397587 0,25.397587 0,0 " />
  </defs>
  <g
     id="logo-desktop-esteso"
     stroke="none"
     stroke-width="1"
     fill="none"
     fill-rule="evenodd">
    <g
       id="Group"
       transform="translate(1.25)">
      <rect
         id="Rectangle"
         fill-opacity="0"
         fill="#ffffff"
         x="0"
         y="0"
         width="289"
         height="42" />
      <path
         d="m 65.942773,22.030728 v -0.52 c -0.589334,-0.03467 -1.035667,-0.104 -1.339,-0.208 -0.303334,-0.104 -0.507,-0.312 -0.611,-0.624 -0.104,-0.312 -0.156,-0.78 -0.156,-1.404 v 0 -12.8960004 c 0,-0.6413334 0.052,-1.1136667 0.156,-1.417 0.104,-0.3033334 0.307666,-0.5113334 0.611,-0.624 0.303333,-0.1126667 0.749666,-0.1776667 1.339,-0.195 v 0 -0.52 c -0.398667,0.017333 -0.897,0.034667 -1.495,0.052 -0.598,0.017333 -1.200334,0.026 -1.807,0.026 -0.676,0 -1.308667,-0.00867 -1.898,-0.026 -0.589334,-0.017333 -1.066,-0.034667 -1.43,-0.052 v 0 0.52 c 0.589333,0.017333 1.035666,0.082333 1.339,0.195 0.303333,0.1126666 0.507,0.3206666 0.611,0.624 0.104,0.3033333 0.156,0.7756666 0.156,1.417 v 0 12.8960004 c 0,0.624 -0.052,1.092 -0.156,1.404 -0.104,0.312 -0.307667,0.52 -0.611,0.624 -0.303334,0.104 -0.749667,0.173333 -1.339,0.208 v 0 0.52 c 0.364,-0.03467 0.840666,-0.05633 1.43,-0.065 0.589333,-0.0087 1.222,-0.013 1.898,-0.013 0.606666,0 1.209,0.0043 1.807,0.013 0.598,0.0087 1.096333,0.03033 1.495,0.065 z m 6.879332,0.364 c 1.057333,0 1.841666,-0.346667 2.353,-1.04 0.511333,-0.693334 0.853667,-1.542667 1.027,-2.548 v 0 l -0.52,-0.13 c -0.277334,1.005333 -0.606667,1.720333 -0.988,2.145 -0.381334,0.424666 -0.832,0.637 -1.352,0.637 -0.52,0 -0.927334,-0.164667 -1.222,-0.494 -0.294667,-0.329334 -0.442,-0.901334 -0.442,-1.716 v 0 -10.0620004 h 3.848 v -0.52 h -3.848 v -4.342 c -0.329334,0.1213333 -0.693334,0.208 -1.092,0.26 -0.398667,0.052 -0.814667,0.086667 -1.248,0.104 v 0 3.978 h -2.496 v 0.52 h 2.496 v 8.7100004 c 0,0.918666 0.07367,1.655333 0.221,2.21 0.147333,0.554666 0.411666,1.031333 0.793,1.43 0.294666,0.277333 0.632666,0.489666 1.014,0.637 0.381333,0.147333 0.866666,0.221 1.456,0.221 z m 13.691332,-0.182 c 0.554667,0 0.996667,-0.091 1.326,-0.273 0.329333,-0.182 0.676,-0.411667 1.04,-0.689 v 0 l -0.286,-0.442 c -0.173333,0.156 -0.351,0.286 -0.533,0.39 -0.182,0.104 -0.394333,0.156 -0.637,0.156 -0.294667,0 -0.502667,-0.09967 -0.624,-0.299 -0.121333,-0.199334 -0.182,-0.507 -0.182,-0.923 v 0 -7.228 c 0,-0.832 -0.06933,-1.547 -0.208,-2.145 -0.138667,-0.598 -0.433333,-1.1050004 -0.884,-1.5210004 -0.329333,-0.312 -0.745333,-0.5503334 -1.248,-0.715 -0.502667,-0.1646667 -1.109333,-0.247 -1.82,-0.247 -0.797333,0 -1.512333,0.099667 -2.145,0.299 -0.632667,0.1993333 -1.148333,0.4376666 -1.547,0.715 -0.346667,0.2426666 -0.632667,0.5026666 -0.858,0.7800004 -0.225333,0.277333 -0.338,0.641333 -0.338,1.092 0,0.398666 0.117,0.758333 0.351,1.079 0.234,0.320666 0.602333,0.481 1.105,0.481 0.433333,0 0.788667,-0.125667 1.066,-0.377 0.277333,-0.251334 0.416,-0.593667 0.416,-1.027 0,-0.433334 -0.121333,-0.788667 -0.364,-1.066 -0.242667,-0.2773338 -0.528667,-0.4506671 -0.858,-0.5200004 0.294667,-0.3813334 0.689,-0.6326667 1.183,-0.754 0.494,-0.1213334 0.957667,-0.182 1.391,-0.182 0.450667,0 0.858,0.065 1.222,0.195 0.364,0.13 0.654333,0.3856666 0.871,0.767 0.216667,0.3813334 0.325,0.9360004 0.325,1.6640004 v 0 1.612 c 0,0.398666 -0.177667,0.728 -0.533,0.988 -0.355333,0.26 -0.810333,0.494 -1.365,0.702 -0.554667,0.208 -1.139667,0.420333 -1.755,0.637 -0.615333,0.216666 -1.200333,0.476666 -1.755,0.78 -0.554667,0.303333 -1.009667,0.693333 -1.365,1.17 -0.355333,0.476666 -0.533,1.079 -0.533,1.807 0,0.936 0.255667,1.685666 0.767,2.249 0.511333,0.563333 1.330333,0.845 2.457,0.845 0.762667,0 1.495,-0.156 2.197,-0.468 0.702,-0.312 1.330333,-0.927334 1.885,-1.846 0,0.606666 0.147333,1.144 0.442,1.612 0.294667,0.468 0.892667,0.702 1.794,0.702 z m -5.174,-1.04 c -0.589333,0 -1.083333,-0.195 -1.482,-0.585 -0.398667,-0.39 -0.598,-0.983667 -0.598,-1.781 0,-0.849334 0.208,-1.503667 0.624,-1.963 0.416,-0.459334 0.914333,-0.823334 1.495,-1.092 0.580667,-0.268667 1.144,-0.515667 1.69,-0.741 0.546,-0.225334 0.949,-0.528667 1.209,-0.91 v 0 5.096 c -0.433333,0.710666 -0.901333,1.217666 -1.404,1.521 -0.502667,0.303333 -1.014,0.455 -1.534,0.455 z m 14.445332,0.858 v -0.546 c -0.710666,0 -1.217666,-0.13 -1.521,-0.39 -0.303333,-0.26 -0.455,-0.754 -0.455,-1.482 v 0 -17.9660004 c -0.381333,0.1213333 -0.801666,0.2123333 -1.261,0.273 -0.459333,0.060667 -0.940333,0.091 -1.443,0.091 -0.52,0 -1.057333,-0.026 -1.612,-0.078 v 0 0.546 c 0.762667,0 1.282667,0.1863333 1.56,0.559 0.277334,0.3726666 0.416,0.949 0.416,1.729 v 0 14.8460004 c 0,0.728 -0.151666,1.222 -0.455,1.482 -0.303333,0.26 -0.810333,0.39 -1.521,0.39 v 0 0.546 c 0.294667,-0.01733 0.745334,-0.039 1.352,-0.065 0.606667,-0.026 1.204667,-0.039 1.794,-0.039 0.606667,0 1.209,0.013 1.807,0.039 0.598,0.026 1.044334,0.04767 1.339,0.065 z M 100.0901,5.4687276 c 0.45067,0 0.84067,-0.1646667 1.17,-0.494 0.32933,-0.3293334 0.494,-0.7193334 0.494,-1.17 0,-0.4506667 -0.16467,-0.8406667 -0.494,-1.17 -0.32933,-0.3293334 -0.71933,-0.494 -1.17,-0.494 -0.450665,0 -0.840665,0.1646666 -1.169998,0.494 -0.329334,0.3293333 -0.494,0.7193333 -0.494,1.17 0,0.4506666 0.164666,0.8406666 0.494,1.17 0.329333,0.3293333 0.719333,0.494 1.169998,0.494 z m 3.328,16.5620004 v -0.546 c -0.71066,0 -1.21766,-0.13 -1.521,-0.39 -0.30333,-0.26 -0.455,-0.754 -0.455,-1.482 v 0 -11.2580004 c -0.38133,0.1213333 -0.80167,0.2123333 -1.261,0.273 -0.459332,0.060667 -0.940332,0.091 -1.442998,0.091 -0.52,0 -1.057334,-0.026 -1.612,-0.078 v 0 0.546 c 0.762666,0 1.282666,0.1863333 1.56,0.559 0.277333,0.3726664 0.416,0.9490004 0.416,1.7290004 v 0 8.138 c 0,0.728 -0.151667,1.222 -0.455,1.482 -0.303334,0.26 -0.810334,0.39 -1.521,0.39 v 0 0.546 c 0.294666,-0.01733 0.745333,-0.039 1.352,-0.065 0.606666,-0.026 1.204666,-0.039 1.793998,-0.039 0.60667,0 1.209,0.013 1.807,0.039 0.598,0.026 1.04434,0.04767 1.339,0.065 z m 11.14333,0.182 c 0.55467,0 0.99667,-0.091 1.326,-0.273 0.32934,-0.182 0.676,-0.411667 1.04,-0.689 v 0 l -0.286,-0.442 c -0.17333,0.156 -0.351,0.286 -0.533,0.39 -0.182,0.104 -0.39433,0.156 -0.637,0.156 -0.29466,0 -0.50266,-0.09967 -0.624,-0.299 -0.12133,-0.199334 -0.182,-0.507 -0.182,-0.923 v 0 -7.228 c 0,-0.832 -0.0693,-1.547 -0.208,-2.145 -0.13866,-0.598 -0.43333,-1.1050004 -0.884,-1.5210004 -0.32933,-0.312 -0.74533,-0.5503334 -1.248,-0.715 -0.50266,-0.1646667 -1.10933,-0.247 -1.82,-0.247 -0.79733,0 -1.51233,0.099667 -2.145,0.299 -0.63266,0.1993333 -1.14833,0.4376666 -1.547,0.715 -0.34666,0.2426666 -0.63266,0.5026666 -0.858,0.7800004 -0.22533,0.277333 -0.338,0.641333 -0.338,1.092 0,0.398666 0.117,0.758333 0.351,1.079 0.234,0.320666 0.60234,0.481 1.105,0.481 0.43334,0 0.78867,-0.125667 1.066,-0.377 0.27734,-0.251334 0.416,-0.593667 0.416,-1.027 0,-0.433334 -0.12133,-0.788667 -0.364,-1.066 -0.24266,-0.2773338 -0.52866,-0.4506671 -0.858,-0.5200004 0.29467,-0.3813334 0.689,-0.6326667 1.183,-0.754 0.494,-0.1213334 0.95767,-0.182 1.391,-0.182 0.45067,0 0.858,0.065 1.222,0.195 0.364,0.13 0.65434,0.3856666 0.871,0.767 0.21667,0.3813334 0.325,0.9360004 0.325,1.6640004 v 0 1.612 c 0,0.398666 -0.17766,0.728 -0.533,0.988 -0.35533,0.26 -0.81033,0.494 -1.365,0.702 -0.55466,0.208 -1.13966,0.420333 -1.755,0.637 -0.61533,0.216666 -1.20033,0.476666 -1.755,0.78 -0.55466,0.303333 -1.00966,0.693333 -1.365,1.17 -0.35533,0.476666 -0.533,1.079 -0.533,1.807 0,0.936 0.25567,1.685666 0.767,2.249 0.51134,0.563333 1.33034,0.845 2.457,0.845 0.76267,0 1.495,-0.156 2.197,-0.468 0.702,-0.312 1.33034,-0.927334 1.885,-1.846 0,0.606666 0.14734,1.144 0.442,1.612 0.29467,0.468 0.89267,0.702 1.794,0.702 z m -5.174,-1.04 c -0.58933,0 -1.08333,-0.195 -1.482,-0.585 -0.39866,-0.39 -0.598,-0.983667 -0.598,-1.781 0,-0.849334 0.208,-1.503667 0.624,-1.963 0.416,-0.459334 0.91434,-0.823334 1.495,-1.092 0.58067,-0.268667 1.144,-0.515667 1.69,-0.741 0.546,-0.225334 0.949,-0.528667 1.209,-0.91 v 0 5.096 c -0.43333,0.710666 -0.90133,1.217666 -1.404,1.521 -0.50266,0.303333 -1.014,0.455 -1.534,0.455 z m 13.87334,1.222 c 0.936,0 1.69433,-0.238334 2.275,-0.715 0.46453,-0.381334 0.82645,-0.904107 1.08576,-1.56832 l 0.0182,-0.05168 0.001,2.231 c 0.42986,-0.110934 0.89024,-0.194134 1.38112,-0.2496 l 0.37388,-0.0364 c 0.63266,-0.052 1.313,-0.078 2.041,-0.078 0.53733,0 1.07466,0.026 1.612,0.078 v 0 -0.546 c -0.624,0 -1.05734,-0.186334 -1.3,-0.559 -0.24267,-0.372667 -0.364,-0.949 -0.364,-1.729 v 0 -17.4980004 c -0.53734,0.1213333 -1.12667,0.2123333 -1.768,0.273 -0.64134,0.060667 -1.31734,0.091 -2.028,0.091 -0.52,0 -1.05734,-0.026 -1.612,-0.078 v 0 0.546 c 0.64133,0 1.079,0.1863333 1.313,0.559 0.234,0.3726666 0.351,0.949 0.351,1.729 v 0 l -0.001,4.405 -0.0186,-0.02063 c -0.19602,-0.1951605 -0.41686,-0.3569382 -0.66252,-0.4853333 l -0.1889,-0.090037 c -0.58067,-0.2513334 -1.25234,-0.377 -2.015,-0.377 -1.10934,0 -2.10167,0.26 -2.977,0.78 -0.87534,0.52 -1.56434,1.2956667 -2.067,2.3270007 -0.50267,1.031333 -0.754,2.335666 -0.754,3.913 0,1.664 0.22533,3.020333 0.676,4.069 0.45066,1.048666 1.079,1.824333 1.885,2.327 0.806,0.502666 1.72033,0.754 2.743,0.754 z m 1.066,-1.118 c -0.48534,0 -0.91434,-0.190667 -1.287,-0.572 -0.37267,-0.381334 -0.65867,-1.009667 -0.858,-1.885 -0.19934,-0.875334 -0.299,-2.049667 -0.299,-3.523 -0.0173,-2.149334 0.234,-3.739667 0.754,-4.771 0.52,-1.0313338 1.222,-1.5470004 2.106,-1.5470004 0.416,0 0.81033,0.091 1.183,0.273 0.26619,0.13 0.49479,0.3196938 0.68581,0.5690816 l 0.0282,0.041918 v 9.1240008 l -0.0198,0.14864 c -0.0849,0.512026 -0.27604,0.943366 -0.5733,1.29402 l -0.1339,0.14534 c -0.468,0.468 -0.99667,0.702 -1.586,0.702 z m 15.53733,1.118 c 1.26533,0 2.37466,-0.234 3.328,-0.702 0.95333,-0.468 1.69866,-1.217667 2.236,-2.249 0.53733,-1.031334 0.806,-2.405 0.806,-4.121 0,-1.716 -0.26867,-3.094 -0.806,-4.134 -0.53734,-1.04 -1.28267,-1.7940004 -2.236,-2.2620004 -0.95334,-0.468 -2.06267,-0.702 -3.328,-0.702 -1.23067,0 -2.327,0.234 -3.289,0.702 -0.962,0.468 -1.716,1.2220004 -2.262,2.2620004 -0.546,1.04 -0.819,2.418 -0.819,4.134 0,1.716 0.273,3.089666 0.819,4.121 0.546,1.031333 1.3,1.781 2.262,2.249 0.962,0.468 2.05833,0.702 3.289,0.702 z m 0,-0.52 c -0.69334,0 -1.274,-0.511334 -1.742,-1.534 -0.468,-1.022667 -0.702,-2.695334 -0.702,-5.018 0,-2.322667 0.234,-3.999667 0.702,-5.031 0.468,-1.0313338 1.04866,-1.5470004 1.742,-1.5470004 0.71067,0 1.29566,0.5156666 1.755,1.5470004 0.45933,1.031333 0.689,2.708333 0.689,5.031 0,2.322666 -0.22967,3.995333 -0.689,5.018 -0.45934,1.022666 -1.04433,1.534 -1.755,1.534 z m 30.56533,0.156 v -0.546 c -0.60667,0 -1.03567,-0.13 -1.287,-0.39 -0.25133,-0.26 -0.377,-0.754 -0.377,-1.482 v 0 -6.994 c 0,-0.866667 -0.0607,-1.564334 -0.182,-2.093 -0.12133,-0.5286671 -0.32067,-0.9576671 -0.598,-1.2870004 -0.27733,-0.312 -0.64133,-0.559 -1.092,-0.741 -0.45067,-0.182 -1.04,-0.273 -1.768,-0.273 -0.884,0 -1.71167,0.182 -2.483,0.546 -0.77133,0.364 -1.391,1.066 -1.859,2.1060004 l 0.0293,-0.064 -0.0127,-0.08083 v 0 l -0.0427,-0.206171 c -0.12133,-0.5286671 -0.32067,-0.9576671 -0.598,-1.2870004 -0.27733,-0.312 -0.64133,-0.559 -1.092,-0.741 -0.45067,-0.182 -1.04,-0.273 -1.768,-0.273 -0.84933,0 -1.62933,0.1863333 -2.34,0.559 -0.71067,0.3726666 -1.274,0.9923333 -1.69,1.8590004 v 0 -2.3400004 c -0.53733,0.1213333 -1.12233,0.2123333 -1.755,0.273 -0.63267,0.060667 -1.313,0.091 -2.041,0.091 -0.52,0 -1.05733,-0.026 -1.612,-0.078 v 0 0.546 c 0.64133,0 1.079,0.1863333 1.313,0.559 0.234,0.3726664 0.351,0.9490004 0.351,1.7290004 v 0 8.19 c 0,0.728 -0.12567,1.222 -0.377,1.482 -0.25133,0.26 -0.68033,0.39 -1.287,0.39 v 0 0.546 c 0.34667,-0.01733 0.86667,-0.039 1.56,-0.065 0.69333,-0.026 1.36933,-0.039 2.028,-0.039 0.60667,0 1.20033,0.013 1.781,0.039 0.58067,0.026 1.00967,0.04767 1.287,0.065 v 0 -0.546 c -0.45067,0 -0.77133,-0.13 -0.962,-0.39 -0.19067,-0.26 -0.286,-0.754 -0.286,-1.482 v 0 -7.228 c 0,-0.572 0.117,-1.087667 0.351,-1.547 0.234,-0.459334 0.54167,-0.819 0.923,-1.0790004 0.38133,-0.26 0.79733,-0.39 1.248,-0.39 0.39867,0 0.69767,0.091 0.897,0.273 0.19933,0.182 0.33367,0.4333334 0.403,0.7540004 0.0693,0.320666 0.104,0.697666 0.104,1.131 v 0 8.086 c 0,0.728 -0.091,1.222 -0.273,1.482 -0.182,0.26 -0.507,0.39 -0.975,0.39 v 0 0.546 c 0.312,-0.01733 0.77133,-0.039 1.378,-0.065 0.60667,-0.026 1.222,-0.039 1.846,-0.039 0.60667,0 1.22633,0.013 1.859,0.039 0.63267,0.026 1.105,0.04767 1.417,0.065 v 0 -0.546 c -0.55467,0 -0.94467,-0.13 -1.17,-0.39 -0.22533,-0.26 -0.338,-0.754 -0.338,-1.482 v 0 -6.994 c 0,-0.108334 -9.5e-4,-0.214026 -0.003,-0.317079 l -0.005,-0.148921 0.0212,-0.19388 c 0.0801,-0.569054 0.27907,-1.072284 0.59696,-1.50969 l 0.14352,-0.18343 c 0.50267,-0.5980004 1.092,-0.8970004 1.768,-0.8970004 0.45067,0 0.78433,0.091 1.001,0.273 0.21667,0.182 0.364,0.4333334 0.442,0.7540004 0.078,0.320666 0.117,0.697666 0.117,1.131 v 0 8.086 c 0,0.728 -0.091,1.222 -0.273,1.482 -0.182,0.26 -0.507,0.39 -0.975,0.39 v 0 0.546 c 0.312,-0.01733 0.77133,-0.039 1.378,-0.065 0.60667,-0.026 1.222,-0.039 1.846,-0.039 0.64133,0 1.29133,0.013 1.95,0.039 0.65867,0.026 1.15267,0.04767 1.482,0.065 z m 10.83133,0.182 c 0.58934,0 1.12234,-0.08233 1.599,-0.247 0.47667,-0.164667 0.897,-0.403 1.261,-0.715 v 0 l -0.26,-0.442 c -0.13866,0.121333 -0.286,0.225333 -0.442,0.312 -0.156,0.08667 -0.32066,0.13 -0.494,0.13 -0.208,0 -0.35533,-0.08667 -0.442,-0.26 -0.0867,-0.173334 -0.13,-0.468 -0.13,-0.884 v 0 -7.072 c 0,-0.884 -0.0607,-1.616334 -0.182,-2.197 -0.12133,-0.580667 -0.38133,-1.0703338 -0.78,-1.4690004 -0.43333,-0.4333334 -0.97066,-0.7323334 -1.612,-0.897 -0.64133,-0.1646667 -1.36066,-0.247 -2.158,-0.247 -0.79733,0 -1.53833,0.078 -2.223,0.234 -0.68466,0.156 -1.26966,0.3726666 -1.755,0.65 -0.45066,0.2946666 -0.80166,0.6066666 -1.053,0.9360004 -0.25133,0.329333 -0.377,0.745333 -0.377,1.248 0,0.554666 0.16034,1.027 0.481,1.417 0.32067,0.39 0.793,0.585 1.417,0.585 0.55467,0 1.03567,-0.173334 1.443,-0.52 0.40734,-0.346667 0.611,-0.814667 0.611,-1.404 0,-0.450667 -0.13433,-0.853667 -0.403,-1.209 -0.26866,-0.3553338 -0.64566,-0.6196671 -1.131,-0.7930004 0.22534,-0.2253334 0.51134,-0.3856667 0.858,-0.481 0.34667,-0.095333 0.69334,-0.143 1.04,-0.143 0.48534,0 0.87967,0.095333 1.183,0.286 0.30334,0.1906666 0.52867,0.4636666 0.676,0.819 0.14734,0.3553334 0.221,0.7583334 0.221,1.2090004 v 0 2.028 c 0,0.398666 -0.169,0.728 -0.507,0.988 -0.338,0.26 -0.78,0.489666 -1.326,0.689 -0.546,0.199333 -1.118,0.398666 -1.716,0.598 -0.598,0.199333 -1.16566,0.450666 -1.703,0.754 -0.53733,0.303333 -0.975,0.689 -1.313,1.157 -0.338,0.468 -0.507,1.074666 -0.507,1.82 0,0.866666 0.26,1.603333 0.78,2.21 0.52,0.606666 1.36067,0.91 2.522,0.91 0.84934,0 1.59034,-0.173334 2.223,-0.52 0.63267,-0.346667 1.16567,-0.875334 1.599,-1.586 0.0173,0.554666 0.195,1.044333 0.533,1.469 0.338,0.424666 1.027,0.637 2.067,0.637 z m -4.42,-1.664 c -0.45066,0 -0.832,-0.160334 -1.144,-0.481 -0.312,-0.320667 -0.468,-0.853667 -0.468,-1.599 0,-0.693334 0.13,-1.248 0.39,-1.664 0.26,-0.416 0.585,-0.758334 0.975,-1.027 0.39,-0.268667 0.77134,-0.52 1.144,-0.754 0.37267,-0.234 0.663,-0.524334 0.871,-0.871 v 0 5.33 c -0.27733,0.398666 -0.559,0.676 -0.845,0.832 -0.286,0.156 -0.59366,0.234 -0.923,0.234 z m 23.05133,1.482 v -0.546 c -0.60666,0 -1.03566,-0.13 -1.287,-0.39 -0.25133,-0.26 -0.377,-0.754 -0.377,-1.482 v 0 -6.994 c 0,-0.884 -0.065,-1.586 -0.195,-2.106 -0.13,-0.5200004 -0.33366,-0.9446671 -0.61099,-1.2740004 -0.26001,-0.312 -0.61967,-0.559 -1.07901,-0.741 -0.45933,-0.182 -1.053,-0.273 -1.781,-0.273 -0.91866,0 -1.75066,0.182 -2.496,0.546 -0.74533,0.364 -1.33466,0.988 -1.768,1.8720004 v 0 -2.3400004 c -0.53733,0.1213333 -1.12233,0.2123333 -1.755,0.273 -0.63266,0.060667 -1.313,0.091 -2.041,0.091 -0.52,0 -1.05733,-0.026 -1.612,-0.078 v 0 0.546 c 0.64134,0 1.079,0.1863333 1.313,0.559 0.234,0.3726664 0.351,0.9490004 0.351,1.7290004 v 0 8.19 c 0,0.728 -0.12566,1.222 -0.377,1.482 -0.25133,0.26 -0.68033,0.39 -1.287,0.39 v 0 0.546 c 0.34667,-0.01733 0.86667,-0.039 1.56,-0.065 0.69334,-0.026 1.36934,-0.039 2.028,-0.039 0.64134,0 1.261,0.013 1.859,0.039 0.598,0.026 1.053,0.04767 1.36501,0.065 v 0 -0.546 c -0.50267,0 -0.86234,-0.13 -1.07901,-0.39 -0.21666,-0.26 -0.325,-0.754 -0.325,-1.482 v 0 -7.228 c 0,-0.866667 0.247,-1.586 0.741,-2.158 0.494,-0.5720004 1.105,-0.8580004 1.833,-0.8580004 0.45067,0 0.78867,0.091 1.014,0.273 0.22534,0.182 0.38134,0.4333334 0.468,0.7540004 0.0867,0.320666 0.13,0.697666 0.13,1.131 v 0 8.086 c 0,0.728 -0.104,1.222 -0.31199,1.482 -0.20801,0.26 -0.57201,0.39 -1.09201,0.39 v 0 0.546 c 0.32934,-0.01733 0.81034,-0.039 1.443,-0.065 0.63267,-0.026 1.27834,-0.039 1.937,-0.039 0.64134,0 1.29134,0.013 1.95,0.039 0.65867,0.026 1.15267,0.04767 1.482,0.065 z m 4.35734,-16.1460004 c 0.728,0 1.30433,-0.1776667 1.729,-0.533 0.42466,-0.3553334 0.637,-0.845 0.637,-1.469 0,-0.624 -0.21234,-1.1136667 -0.637,-1.469 -0.42467,-0.3553334 -1.001,-0.533 -1.729,-0.533 -0.728,0 -1.30434,0.1776666 -1.729,0.533 -0.42467,0.3553333 -0.637,0.845 -0.637,1.469 0,0.624 0.21233,1.1136666 0.637,1.469 0.42466,0.3553333 1.001,0.533 1.729,0.533 z m 3.692,16.1460004 v -0.546 c -0.60667,0 -1.03567,-0.13 -1.287,-0.39 -0.25134,-0.26 -0.377,-0.754 -0.377,-1.482 v 0 -11.3100004 c -0.53734,0.1213333 -1.12234,0.2123333 -1.755,0.273 -0.63267,0.060667 -1.313,0.091 -2.041,0.091 -0.52,0 -1.05734,-0.026 -1.612,-0.078 v 0 0.546 c 0.64133,0 1.079,0.1863333 1.313,0.559 0.234,0.3726664 0.351,0.9490004 0.351,1.7290004 v 0 8.19 c 0,0.728 -0.12567,1.222 -0.377,1.482 -0.25134,0.26 -0.68034,0.39 -1.287,0.39 v 0 0.546 c 0.34666,-0.01733 0.86666,-0.039 1.56,-0.065 0.69333,-0.026 1.378,-0.039 2.054,-0.039 0.676,0 1.34333,0.013 2.002,0.039 0.65866,0.026 1.144,0.04767 1.456,0.065 z"
         id="Italiadomani"
         fill="#000000"
         fill-rule="nonzero" />
      <path
         d="m 60.953864,34.488229 v -2.280398 h 1.722533 c 1.441969,0 2.162953,-0.76992 2.162953,-2.30976 0,-0.737296 -0.176168,-1.285374 -0.528504,-1.644235 -0.352337,-0.358861 -0.897153,-0.538292 -1.634449,-0.538292 v 0 h -2.476141 v 6.772685 z m 1.712746,-2.945922 h -1.712746 v -3.161239 h 1.712746 c 0.489356,0 0.844954,0.122339 1.066796,0.367017 0.221841,0.244678 0.332762,0.628007 0.332762,1.149986 0,1.096157 -0.46652,1.644236 -1.399558,1.644236 z m 4.091015,2.945922 v -6.772685 h -0.753608 v 6.772685 z m 1.800829,0 0.489356,-1.742107 h 2.896987 l 0.489356,1.742107 h 0.743821 l -1.859552,-6.772685 h -1.644236 l -1.859552,6.772685 z m 3.219962,-2.417418 h -2.564225 l 1.027648,-3.709317 h 0.50893 z m 3.219962,2.417418 v -6.107161 h 0.185955 l 2.632734,6.107161 h 1.379984 V 27.715544 H 78.45323 v 6.107161 H 78.247701 L 75.654115,27.715544 H 74.24477 v 6.772685 z m 8.26522,0.09787 c 1.014598,0 1.714377,-0.270777 2.099337,-0.812331 0.38496,-0.541554 0.57744,-1.41587 0.57744,-2.622948 0,-1.207077 -0.197374,-2.097705 -0.592121,-2.671883 -0.394747,-0.574177 -1.091263,-0.861266 -2.089549,-0.861266 -0.998286,0 -1.693172,0.28872 -2.084656,0.86616 -0.391485,0.57744 -0.587227,1.461543 -0.587227,2.652309 0,1.190766 0.19248,2.06345 0.57744,2.618054 0.384959,0.554603 1.084738,0.831905 2.099336,0.831905 z m 0,-0.665524 c -0.747083,0 -1.25112,-0.216948 -1.512109,-0.650844 -0.26099,-0.433895 -0.391485,-1.146724 -0.391485,-2.138485 0,-0.991761 0.132126,-1.714377 0.396378,-2.167846 0.264252,-0.45347 0.763395,-0.680205 1.497429,-0.680205 0.734034,0 1.234808,0.228366 1.502323,0.685098 0.267514,0.456732 0.401271,1.184241 0.401271,2.182527 0,0.998286 -0.128863,1.709483 -0.386591,2.133592 -0.257727,0.424108 -0.760133,0.636163 -1.507216,0.636163 z m 6.963534,0.567652 v -6.107161 h 0.185955 l 2.632737,6.107161 h 1.379983 v -6.772685 h -0.743821 v 6.107161 h -0.205529 l -2.593588,-6.107161 h -1.409345 v 6.772685 z m 6.009292,0 0.489356,-1.742107 h 2.896982 l 0.489358,1.742107 h 0.74382 l -1.859549,-6.772685 h -1.644236 l -1.859552,6.772685 z m 3.219958,-2.417418 h -2.564221 l 1.027647,-3.709317 h 0.50893 z m 6.459498,2.427205 v -0.675311 h -3.54294 v -0.195742 l 3.54294,-5.030578 v -0.880841 h -4.4042 v 0.665524 h 3.53315 v 0.215317 l -3.53315,5.030578 v 0.871053 z m 2.00636,-0.0098 v -6.772685 h -0.75361 v 6.772685 z m 4.05676,0.09787 c 1.0146,0 1.71438,-0.270777 2.09934,-0.812331 0.38496,-0.541554 0.57744,-1.41587 0.57744,-2.622948 0,-1.207077 -0.19738,-2.097705 -0.59212,-2.671883 -0.39475,-0.574177 -1.09127,-0.861266 -2.08955,-0.861266 -0.99829,0 -1.69317,0.28872 -2.08466,0.86616 -0.39148,0.57744 -0.58723,1.461543 -0.58723,2.652309 0,1.190766 0.19248,2.06345 0.57744,2.618054 0.38496,0.554603 1.08474,0.831905 2.09934,0.831905 z m 0,-0.665524 c -0.74708,0 -1.25112,-0.216948 -1.51211,-0.650844 -0.26099,-0.433895 -0.39148,-1.146724 -0.39148,-2.138485 0,-0.991761 0.13212,-1.714377 0.39637,-2.167846 0.26426,-0.45347 0.7634,-0.680205 1.49743,-0.680205 0.73404,0 1.23481,0.228366 1.50233,0.685098 0.26751,0.456732 0.40127,1.184241 0.40127,2.182527 0,0.998286 -0.12887,1.709483 -0.38659,2.133592 -0.25773,0.424108 -0.76014,0.636163 -1.50722,0.636163 z m 4.81037,0.567652 v -6.107161 h 0.18595 l 2.63274,6.107161 h 1.37998 v -6.772685 h -0.74382 v 6.107161 h -0.20553 l -2.59359,-6.107161 h -1.40934 v 6.772685 z m 6.00929,0 0.48935,-1.742107 h 2.89699 l 0.48936,1.742107 h 0.74382 l -1.85955,-6.772685 h -1.64424 l -1.85955,6.772685 z m 3.21996,-2.417418 h -2.56423 l 1.02765,-3.709317 h 0.50893 z m 6.19524,2.417418 v -0.675311 h -2.97528 v -6.097374 h -0.75361 v 6.772685 z m 5.07952,0 v -0.665524 h -3.36677 v -2.446779 h 2.77954 v -0.655737 h -2.77954 v -2.339121 h 3.36677 V 27.715527 H 133.173 v 6.772685 z"
         id="PIANONAZIONALEDIRIPRESAERESILIENZA"
         fill="#000000"
         fill-rule="nonzero"
         sodipodi:nodetypes="ccssssccccsccssssccccccccccccccccccccccccccccccccsssssssssssssssssscccccccccccccccccccccccccccccccccccccccccccccssssssssssssssssssccccccccccccccccccccccccccccccccccccccccccccccc"
         style="stroke-width:0.815593" />
      <path
         d="m 62.553616,44.693965 c 0.482831,0 0.89389,-0.08808 1.233177,-0.264252 0.848217,-0.443683 1.272325,-1.517003 1.272325,-3.219961 0,-0.815594 -0.104396,-1.474593 -0.313188,-1.976998 -0.358861,-0.874316 -1.089632,-1.311474 -2.192314,-1.311474 v 0 h -2.417418 v 6.772685 z m 0,-0.665524 h -1.66381 v -5.441637 h 1.66381 c 0.339287,0 0.626375,0.06525 0.861266,0.195742 0.580703,0.319713 0.871054,1.128781 0.871054,2.427206 0,1.879126 -0.57744,2.818689 -1.73232,2.818689 z m 4.648881,0.665524 V 37.92128 h -0.753608 v 6.772685 z m 4.560796,0 v -2.593586 h 1.918275 l 1.22339,2.593586 h 0.831905 l -1.301687,-2.75018 c 0.828643,-0.267514 1.242964,-0.923251 1.242964,-1.96721 0,-0.704673 -0.181061,-1.22339 -0.543185,-1.556152 -0.362123,-0.332762 -0.902046,-0.499143 -1.619768,-0.499143 v 0 h -2.505502 v 6.772685 z m 1.761681,-3.25911 h -1.761681 v -2.848051 h 1.751894 c 0.926514,0 1.389771,0.474675 1.389771,1.424026 0,0.94935 -0.459995,1.424025 -1.379984,1.424025 z m 4.267184,3.25911 V 37.92128 H 77.03855 v 6.772685 z m 2.40763,0 v -2.280398 h 1.722533 c 1.441969,0 2.162953,-0.76992 2.162953,-2.30976 0,-0.737296 -0.176168,-1.285374 -0.528504,-1.644235 -0.352337,-0.358861 -0.897153,-0.538292 -1.634449,-0.538292 v 0 H 79.44618 v 6.772685 z m 1.712746,-2.945922 h -1.712746 v -3.161239 h 1.712746 c 0.489356,0 0.844954,0.122339 1.066796,0.367017 0.221841,0.244678 0.332762,0.628007 0.332762,1.149986 0,1.096157 -0.46652,1.644236 -1.399558,1.644236 z m 4.091015,2.945922 v -2.593586 h 1.918275 l 1.22339,2.593586 h 0.831905 l -1.301687,-2.75018 c 0.828643,-0.267514 1.242964,-0.923251 1.242964,-1.96721 0,-0.704673 -0.181062,-1.22339 -0.543185,-1.556152 -0.362123,-0.332762 -0.902046,-0.499143 -1.619768,-0.499143 v 0 h -2.505502 v 6.772685 z m 1.761681,-3.25911 h -1.761681 v -2.848051 h 1.751894 c 0.926514,0 1.389771,0.474675 1.389771,1.424026 0,0.94935 -0.459995,1.424025 -1.379984,1.424025 z m 7.633947,3.25911 v -0.665524 h -3.366769 v -2.446779 h 2.779542 v -0.655737 h -2.779542 v -2.339121 h 3.366769 V 37.92128 h -4.120372 v 6.772685 z m 3.131877,0.08808 c 1.441968,0 2.162956,-0.694885 2.162956,-2.084656 0,-0.561128 -0.14355,-0.964031 -0.43064,-1.208709 -0.287088,-0.244678 -0.774808,-0.443682 -1.46317,-0.597014 -0.688361,-0.153331 -1.145093,-0.306663 -1.370196,-0.459994 -0.225104,-0.153332 -0.337656,-0.435527 -0.337656,-0.846586 0,-0.737296 0.489356,-1.105944 1.468068,-1.105944 0.378435,0 1.021126,0.05546 1.928064,0.166381 v 0 l 0.0685,-0.636163 -0.33277,-0.04894 c -0.665518,-0.09787 -1.236434,-0.146807 -1.71274,-0.146807 -1.455018,0 -2.182527,0.606801 -2.182527,1.820404 0,0.606801 0.159856,1.039065 0.479569,1.296793 0.319712,0.257727 0.861266,0.46815 1.624661,0.631269 0.580702,0.11092 0.977079,0.246309 1.189139,0.406165 0.21205,0.159856 0.31808,0.422477 0.31808,0.787863 0,0.90694 -0.48283,1.360409 -1.448496,1.360409 -0.463257,0 -1.138568,-0.05872 -2.025934,-0.176168 v 0 l -0.0783,0.626376 0.352336,0.04894 c 0.717722,0.110921 1.314736,0.166381 1.791042,0.166381 z m 3.611446,-0.08808 0.48935,-1.742107 h 2.89699 l 0.48936,1.742107 h 0.74382 l -1.85955,-6.772685 h -1.64424 l -1.85955,6.772685 z m 3.21996,-2.417418 h -2.56422 l 1.02764,-3.709317 h 0.50893 z m 8.7399,2.417418 v -0.665524 h -3.36677 v -2.446779 h 2.77954 v -0.655737 h -2.77954 v -2.339121 h 3.36677 V 37.92128 h -4.12038 v 6.772685 z m 4.19867,0 v -2.593586 h 1.91827 l 1.22339,2.593586 h 0.83191 l -1.30169,-2.75018 c 0.82864,-0.267514 1.24297,-0.923251 1.24297,-1.96721 0,-0.704673 -0.18107,-1.22339 -0.54319,-1.556152 -0.36212,-0.332762 -0.90204,-0.499143 -1.61977,-0.499143 v 0 h -2.5055 v 6.772685 z m 1.76168,-3.25911 h -1.76168 v -2.848051 h 1.75189 c 0.92652,0 1.38977,0.474675 1.38977,1.424026 0,0.94935 -0.45999,1.424025 -1.37998,1.424025 z m 7.63395,3.25911 v -0.665524 h -3.36677 v -2.446779 h 2.77954 v -0.655737 h -2.77954 v -2.339121 h 3.36677 V 37.92128 h -4.12037 v 6.772685 z m 3.13188,0.08808 c 1.44197,0 2.16295,-0.694885 2.16295,-2.084656 0,-0.561128 -0.14354,-0.964031 -0.43063,-1.208709 -0.28709,-0.244678 -0.77481,-0.443682 -1.46318,-0.597014 -0.68836,-0.153331 -1.14509,-0.306663 -1.37019,-0.459994 -0.22511,-0.153332 -0.33766,-0.435527 -0.33766,-0.846586 0,-0.737296 0.48936,-1.105944 1.46807,-1.105944 0.37844,0 1.02112,0.05546 1.92806,0.166381 v 0 l 0.0685,-0.636163 -0.33276,-0.04894 c -0.66552,-0.09787 -1.23644,-0.146807 -1.71274,-0.146807 -1.45502,0 -2.18253,0.606801 -2.18253,1.820404 0,0.606801 0.15985,1.039065 0.47957,1.296793 0.31971,0.257727 0.86126,0.46815 1.62466,0.631269 0.5807,0.11092 0.97708,0.246309 1.18913,0.406165 0.21206,0.159856 0.31808,0.422477 0.31808,0.787863 0,0.90694 -0.48283,1.360409 -1.44849,1.360409 -0.46326,0 -1.13857,-0.05872 -2.02593,-0.176168 v 0 l -0.0783,0.626376 0.35234,0.04894 c 0.71772,0.110921 1.31473,0.166381 1.79104,0.166381 z m 4.21825,-0.08808 V 37.92128 h -0.75361 v 6.772685 z m 5.38291,0 v -0.675311 h -2.97528 V 37.92128 h -0.75361 v 6.772685 z m 1.71275,0 V 37.92128 h -0.75361 v 6.772685 z m 5.7744,0 v -0.665524 h -3.36677 v -2.446779 h 2.77954 v -0.655737 h -2.77954 v -2.339121 h 3.36677 V 37.92128 h -4.12038 v 6.772685 z m 2.0455,0 v -6.107161 h 0.18596 l 2.63273,6.107161 h 1.37999 V 37.92128 h -0.74382 v 6.107161 h -0.20553 l -2.59359,-6.107161 h -1.40934 v 6.772685 z m 9.85563,0.0098 v -0.675311 h -3.54294 v -0.195742 l 3.54294,-5.030578 v -0.880841 h -4.4042 v 0.665524 h 3.53315 v 0.215317 l -3.53315,5.030578 v 0.871053 z m 1.39956,-0.0098 0.48935,-1.742107 h 2.89699 l 0.48936,1.742107 h 0.74382 l -1.85955,-6.772685 h -1.64424 l -1.85955,6.772685 z m 3.21996,-2.417418 h -2.56422 l 1.02764,-3.709317 h 0.50893 z"
         id="PIANONAZIONALEDIRIPRESAERESILIENZA-3"
         fill="#000000"
         fill-rule="nonzero"
         sodipodi:nodetypes="scscscccssccscsscccccccccccsssccccsccssscccccccssssccccsccssssccccccsssccccsccssscccccccccccccssssssssccsssscsssscccscccccccccccccccccccccccccccccccccsssccccsccssscccccccccccccssssssssccsssscsssscccscccccccccccccccccccccccccccccccccccccccccccccccccccccccccccccccccccccc"
         style="stroke-width:0.815593" />
    </g>
    <g
       id="Group-22"
       transform="matrix(1.1469465,0,0,1.1469465,1.25,0.75)">
      <path
         d="M 47.918469,2.6309323 C 43.369515,1.7539549 38.820562,0.87697743 34.271608,0 c 0,3.8942611 0,7.7880765 0,11.682338 1.1505,0.09224 2.300553,0.184486 3.451053,0.276729 0,5.266766 0,10.533532 0,15.800745 3.398454,-0.262915 6.797354,-0.52583 10.195808,-0.788745 0,-8.113379 0,-16.226757 0,-24.3401347"
         id="Fill-1"
         fill="#d8242a" />
      <path
         d="m 34.271608,11.682338 c -2.296542,-0.184487 -4.593084,-0.368527 -6.889626,-0.552568 0,8.210078 0,16.41971 0,24.629787 -1.150054,0.163988 -2.300553,0.32753 -3.451053,0.491072 0,1.916605 0,3.832765 0,5.749371 4.597095,-0.886781 9.194637,-1.773117 13.791732,-2.659006 0,-3.860394 0,-7.720788 0,-11.581182 -1.1505,0.08868 -2.300553,0.177801 -3.451053,0.266479 0,-5.447687 0,-10.89582 0,-16.343953"
         id="Fill-2"
         fill="#e6e6e0" />
      <path
         d="m 34.271608,11.682338 c 0,5.448133 0,10.896266 0,16.343953 1.1505,-0.08868 2.300553,-0.177801 3.451053,-0.266479 0,-5.267213 0,-10.533979 0,-15.800745 -1.1505,-0.09224 -2.300553,-0.184486 -3.451053,-0.276729"
         id="Fill-3"
         fill="#932327" />
      <path
         d="m 27.381982,11.12977 c 0,-1.8582291 0,-3.7164587 0,-5.5746884 C 22.784887,4.9548334 18.187791,4.3545851 13.59025,3.7538912 c 0,11.3236148 0,22.6463378 0,33.9695068 3.447042,-0.491072 6.894083,-0.981698 10.340679,-1.472769 0,-8.465863 0,-16.931725 0,-25.397588 1.1505,0.09224 2.300999,0.184487 3.451053,0.276729"
         id="Fill-4"
         fill="#198b53" />
      <g
         id="Group-8"
         transform="translate(0,10.853041)">
        <mask
           id="mask-2"
           fill="#ffffff">
          <use
             xlink:href="#path-1"
             id="use63"
             x="0"
             y="0"
             width="100%"
             height="100%" />
        </mask>
        <g
           id="Clip-6" />
        <path
           d="M 27.381982,0.27672916 C 26.231928,0.18448611 25.081429,0.09224305 23.930929,0 c 0,8.4658624 0,16.931725 0,25.397587 1.1505,-0.163542 2.300999,-0.327084 3.451053,-0.491071 0,-8.210078 0,-16.4197095 0,-24.62978684"
           id="Fill-5"
           fill="#45ae59"
           mask="url(#mask-2)" />
        <path
           d="M 3.3289159,4.0096763 C 2.2105107,3.9686794 1.0916597,3.9276825 -0.02674544,3.8862399 c 0,-1.1737594 0,-2.3479644 0,-3.52216949 1.11840514,0.0655059 2.23725614,0.13056625 3.35566134,0.19607219 0,1.1501416 0,2.2998377 0,3.4495337"
           id="Fill-7"
           fill="#198b53"
           mask="url(#mask-2)" />
      </g>
      <path
         d="m 7.3661402,19.003851 c -1.1184052,-0.01248 -2.2368104,-0.02451 -3.3556614,-0.03699 0,-1.14524 0,-2.290034 0,-3.434828 1.118851,0.03654 2.2372562,0.07308 3.3556614,0.109622 0,1.120731 0,2.241462 0,3.362192"
         id="Fill-9"
         fill="#198b53" />
      <path
         d="m 15.44148,19.09253 c -1.118851,-0.01248 -2.237702,-0.02451 -3.356107,-0.03699 0,-1.086418 0,-2.173282 0,-3.2597 1.118405,0.03654 2.237256,0.07308 3.356107,0.109622 0,1.062355 0,2.12471 0,3.187065"
         id="Fill-10"
         fill="#198b53" />
      <path
         d="m 15.44148,10.373556 c -1.118851,-0.07888 -2.237702,-0.157304 -3.356107,-0.236178 0,-1.0864183 0,-2.1732821 0,-3.2597003 1.118405,0.1029379 2.237256,0.2058758 3.356107,0.3088137 0,1.0623548 0,2.1247095 0,3.1870646"
         id="Fill-11"
         fill="#45ae59" />
      <path
         d="M 3.3761662,23.05497 C 2.257761,23.07146 1.13891,23.08795 0.02050484,23.10443 c 0,-1.17376 0,-2.347519 0,-3.521278 1.11840516,0.008 2.23725616,0.0156 3.35566136,0.02317 0,1.149696 0,2.298946 0,3.448642"
         id="Fill-12"
         fill="#45ae59" />
      <path
         d="m 11.40381,26.824904 c -1.118405,0.04545 -2.2372559,0.09091 -3.3556611,0.136359 0,-1.115829 0,-2.231658 0,-3.347487 1.1184052,-0.02094 2.2372561,-0.04189 3.3556611,-0.06328 0,1.09132 0,2.183086 0,3.274406"
         id="Fill-13"
         fill="#198b53" />
      <path
         d="m 15.44148,30.446001 c -1.118851,0.07397 -2.237702,0.148391 -3.356107,0.222363 0,-1.086864 0,-2.173282 0,-3.259254 1.118405,-0.05035 2.237256,-0.100265 3.356107,-0.149728 0,1.061909 0,2.124264 0,3.186619"
         id="Fill-14"
         fill="#45ae59" />
      <path
         d="m 7.3661402,34.973931 c -1.1184052,0.102938 -2.2368104,0.205876 -3.3556614,0.308368 0,-1.144794 0,-2.289588 0,-3.434828 1.118851,-0.07843 2.2372562,-0.157303 3.3556614,-0.236178 0,1.121177 0,2.241462 0,3.362638"
         id="Fill-15"
         fill="#45ae59" />
      <path
         d="m 15.345197,34.239552 c -1.118851,0.102938 -2.237256,0.206321 -3.356107,0.308814 0,-1.08731 0,-2.174619 0,-3.261929 1.118851,-0.07843 2.237256,-0.157303 3.356107,-0.236178 0,1.063246 0,2.126492 0,3.189293"
         id="Fill-16"
         fill="#198b53" />
      <path
         d="m 29.298739,4.3661712 c 0,-0.8480122 0,-1.6964701 0,-2.5444823 -0.831338,-0.1163065 -1.663121,-0.2321673 -2.494458,-0.3484738 0,0.8729669 0,1.7459338 0,2.6189006 0.831337,0.091352 1.66312,0.1827037 2.494458,0.2740555"
         id="Fill-17"
         fill="#d8242a" />
      <path
         d="m 32.261242,7.6481523 c 0,-0.819047 0,-1.6380941 0,-2.4571411 -0.831337,-0.08645 -1.66312,-0.1729 -2.494458,-0.2589044 0,0.8435561 0,1.6871121 0,2.5306681 0.831338,0.061495 1.663121,0.1234364 2.494458,0.1853774"
         id="Fill-18"
         fill="#d8242a" />
      <path
         d="m 32.261242,13.56062 c 0,-0.819047 0,-1.638094 0,-2.457141 -0.831337,-0.02718 -1.66312,-0.05437 -2.494458,-0.08155 0,0.844002 0,1.687558 0,2.531114 0.831338,0.0027 1.663121,0.0053 2.494458,0.0076"
         id="Fill-19"
         fill="#932327" />
      <path
         d="m 33.59896,20.476175 c 0,-0.805678 0,-1.611802 0,-2.417481 -0.831783,0.04322 -1.663566,0.08645 -2.494904,0.129675 0,0.830633 0,1.661267 0,2.491454 0.831338,-0.06773 1.663121,-0.135914 2.494904,-0.203648"
         id="Fill-20"
         fill="#932327" />
      <path
         d="m 35.224191,5.051087 c 0,-0.7900818 0,-1.579718 0,-2.3697998 -0.831783,-0.1154152 -1.66312,-0.2312761 -2.494904,-0.3466913 0,0.8141452 0,1.6287361 0,2.4433269 0.831784,0.090906 1.663121,0.182258 2.494904,0.2731642"
         id="Fill-21"
         fill="#932327" />
      <path
         d="m 35.224191,16.420155 c 0,-0.789636 0,-1.579718 0,-2.369355 -0.831783,0.0027 -1.66312,0.0049 -2.494904,0.0076 0,0.814591 0,1.628736 0,2.443327 0.831784,-0.02718 1.663121,-0.05437 2.494904,-0.08155"
         id="Fill-22"
         fill="#d8242a" />
      <path
         d="m 35.203687,24.975141 c 0,-0.790082 0,-1.580164 0,-2.3698 -0.831784,0.09135 -1.663567,0.182704 -2.49535,0.274055 0,0.814591 0,1.629182 0,2.443773 0.831783,-0.115861 1.663566,-0.232167 2.49535,-0.348028"
         id="Fill-23"
         fill="#d8242a" />
    </g>
  </g>
  <metadata
     id="metadata2634">
    <rdf:RDF>
      <cc:Work
         rdf:about="">
        <dc:title>logo-desktop-esteso</dc:title>
      </cc:Work>
    </rdf:RDF>
  </metadata>
</svg>
